Coordinates
version=1
nRows=27
nColumns=12
inDegrees=yes

Units are S.I. units (second, meters, Newtons, ...)
Angles are in degrees

endheader
time	SC_y	SC_z	SC_x	AC_y	AC_z	AC_x	GH_y	GH_z	GH_yy	EL_x	PS_y
       0.0               -17.7          21.41          38.75          32.22         -6.793         -1.378          106.3          74.91          128.8           40.9          142.9
   0.02599               -17.7          21.41          38.76          32.22         -6.794          -1.38          106.3          74.91          128.8          40.91          142.8
   0.05199              -17.71          21.41          38.76          32.22         -6.794         -1.382          106.3          74.91          128.8          40.91          142.8
   0.07798              -17.71           21.4          38.76          32.22         -6.795         -1.384          106.3          74.91          128.7          40.91          142.8
     0.104              -17.71           21.4          38.76          32.22         -6.795         -1.386          106.3          74.91          128.7          40.91          142.8
      0.13              -17.71           21.4          38.77          32.22         -6.796         -1.389          106.3          74.91          128.7          40.91          142.8
     0.156              -17.71           21.4          38.77          32.22         -6.797         -1.391          106.3          74.91          128.6          40.91          142.7
     0.182              -17.71           21.4          38.78          32.22         -6.797         -1.394          106.4          74.91          128.6          40.91          142.7
     0.208              -17.71           21.4          38.78          32.22         -6.798         -1.397          106.4          74.92          128.6          40.92          142.7
    0.2339              -17.71           21.4          38.78          32.22         -6.799           -1.4          106.4          74.92          128.5          40.92          142.7
    0.2599              -17.71          21.39          38.79          32.22           -6.8         -1.404          106.4          74.92          128.5          40.92          142.6
    0.2859              -17.72          21.39          38.79          32.22         -6.801         -1.408          106.4          74.92          128.4          40.92          142.6
    0.3119              -17.72          21.39           38.8          32.22         -6.802         -1.412          106.4          74.92          128.4          40.92          142.6
    0.3379              -17.72          21.39          38.81          32.22         -6.803         -1.416          106.4          74.92          128.3          40.93          142.6
    0.3639              -17.72          21.39          38.81          32.22         -6.804         -1.421          106.5          74.92          128.2          40.93          142.5
    0.3899              -17.72          21.38          38.82          32.22         -6.805         -1.426          106.5          74.92          128.2          40.93          142.5
    0.4159              -17.72          21.38          38.83          32.22         -6.806         -1.431          106.5          74.92          128.1          40.94          142.4
    0.4419              -17.73          21.38          38.84          32.23         -6.808         -1.438          106.5          74.92          128.0          40.94          142.4
    0.4679              -17.73          21.37          38.84          32.23         -6.809         -1.444          106.5          74.92          127.9          40.94          142.3
    0.4939              -17.73          21.37          38.85          32.23         -6.811         -1.451          106.6          74.92          127.8          40.95          142.3
    0.5199              -17.73          21.37          38.87          32.23         -6.813         -1.459          106.6          74.92          127.7          40.95          142.2
    0.5459              -17.74          21.36          38.88          32.23         -6.815         -1.468          106.6          74.92          127.6          40.96          142.1
    0.5719              -17.74          21.36          38.89          32.23         -6.817         -1.478          106.6          74.92          127.5          40.96          142.1
    0.5979              -17.74          21.35          38.91          32.23          -6.82         -1.488          106.7          74.92          127.3          40.97          142.0
    0.6239              -17.75          21.35          38.92          32.23         -6.823           -1.5          106.7          74.92          127.1          40.98          141.9
    0.6498              -17.75          21.34          38.94          32.23         -6.826         -1.514          106.8          74.92          127.0          40.99          141.8
    0.6758              -17.76          21.33          38.96          32.24         -6.829         -1.529          106.8          74.93          126.8          40.99          141.7
